<svg width="87" height="87" viewBox="0 0 87 87" fill="none" xmlns="http://www.w3.org/2000/svg">
<path fill-rule="evenodd" clip-rule="evenodd" d="M8 0C3.58172 0 0 3.58172 0 8V79C0 83.4183 3.58172 87 8 87H79C83.4183 87 87 83.4183 87 79V8C87 3.58172 83.4183 0 79 0H8ZM25.3163 69.7689C24.1434 69.3424 23.2727 68.9159 22.704 68.4894L21.2646 73.394C22.4019 74.1759 23.6459 74.7623 24.9964 75.1532C26.3469 75.5442 27.8929 75.7396 29.6344 75.7396C32.5843 75.7396 34.9299 75.2776 36.6714 74.3536C38.4484 73.4295 39.7812 72.1145 40.6697 70.4086C41.5582 68.6671 42.1446 66.6235 42.429 64.2779C42.7488 61.9322 42.9088 59.3555 42.9088 56.5478V37.3027H36.8847V57.4008C36.8847 59.6398 36.778 61.5768 36.5648 63.2116C36.3871 64.8465 36.0317 66.197 35.4986 67.2633C35.001 68.2939 34.2547 69.0758 33.2595 69.6089C32.2999 70.1065 31.0383 70.3553 29.4745 70.3553C27.8752 70.3553 26.4891 70.1598 25.3163 69.7689ZM69.315 75.1532H75.1792V58.1471C75.1792 56.6189 75.0548 55.1795 74.806 53.829C74.5928 52.4429 74.1663 51.2345 73.5266 50.2038C72.9224 49.1376 72.0694 48.3024 70.9676 47.6982C69.9014 47.0941 68.5331 46.792 66.8627 46.792C65.2279 46.792 63.6819 47.0408 62.2247 47.5383C60.7675 48.0359 59.4526 48.7467 58.2797 49.6707C57.1424 50.5593 56.2184 51.6255 55.5076 52.8694V47.2718H50.1765V75.1532H56.0407V58.5736C56.4316 57.2942 57.0713 56.1746 57.9599 55.215C58.8484 54.2199 59.8435 53.438 60.9452 52.8694C62.0825 52.3007 63.2198 52.0164 64.3571 52.0164C65.992 52.0164 67.2181 52.6206 68.0356 53.829C68.8885 55.0373 69.315 56.9388 69.315 59.5332V75.1532Z" fill="#333333"/>
</svg>
