<svg width="520" height="511" viewBox="0 0 420 411" fill="none"
  xmlns="http://www.w3.org/2000/svg">
  <path d="M332.364 43.9531C421.527 114.074 436.964 243.2 366.843 332.364C296.721 421.527 167.596 436.964 78.4321 366.843C-10.7314 296.721 -26.1681 167.596 43.9531 78.4321C114.074 -10.7314 243.2 -26.1681 332.364 43.9531Z" fill="url(#paint0_linear_225_535)"/>
  <path d="M104.972 191.096C118.69 201.882 121.067 221.748 110.28 235.466C99.4934 249.185 79.6281 251.561 65.9097 240.774C52.1913 229.988 49.8147 210.122 60.6014 196.404C71.3881 182.686 91.2533 180.309 104.972 191.096Z" fill="url(#paint1_linear_225_535)"/>
  <path d="M235.532 26.1892C241.273 28.3978 243.482 34.1254 240.467 38.9822C237.452 43.8391 230.354 45.9859 224.613 43.7774C218.872 41.5688 216.663 35.8412 219.678 30.9844C222.693 26.1275 229.791 23.9807 235.532 26.1892Z" fill="url(#paint2_linear_225_535)"/>
  <path d="M369.23 122.012C375.769 120.977 382.23 127.471 383.662 136.517C385.094 145.563 380.954 153.735 374.416 154.77C367.877 155.805 361.416 149.311 359.984 140.265C358.552 131.219 362.692 123.047 369.23 122.012Z" fill="url(#paint3_linear_225_535)"/>
  <path d="M106.586 33.7525C108.607 36.6697 104.143 43.263 96.6158 48.4793C89.0882 53.6956 81.3472 55.5594 79.3258 52.6423C77.3044 49.7252 81.7681 43.1318 89.2957 37.9155C96.8233 32.6993 104.564 30.8354 106.586 33.7525Z" fill="url(#paint4_linear_225_535)"/>
  <path d="M323.805 275.816C338.551 293.984 333.03 322.895 311.475 340.391C289.919 357.886 260.491 357.34 245.745 339.172C230.999 321.004 236.519 292.093 258.075 274.598C279.631 257.102 309.059 257.648 323.805 275.816Z" fill="url(#paint5_linear_225_535)"/>
  <path d="M51.5329 65.0376C54.0653 66.8619 50.0819 76.72 42.6357 87.0561C35.1895 97.3923 27.1003 104.293 24.5679 102.468C22.0355 100.644 26.0189 90.7859 33.4651 80.4497C40.9112 70.1135 49.0005 63.2132 51.5329 65.0376Z" fill="#3E404E"/>
  <path d="M54.8599 67.4345C59.2298 70.5826 56.736 81.5137 49.2898 91.8499C41.8437 102.186 32.2649 108.013 27.895 104.865C23.5251 101.717 26.0189 90.786 33.4651 80.4498C40.9112 70.1136 50.49 64.2865 54.8599 67.4345Z" fill="#3E404E"/>
  <path d="M46.0339 68.6427C46.7707 69.1735 43.1404 75.4723 37.9254 82.7114C32.7104 89.9505 27.8854 95.3887 27.1486 94.8579C26.4117 94.327 30.042 88.0283 35.2571 80.7892C40.4721 73.55 45.297 68.1119 46.0339 68.6427Z" fill="#111321"/>
  <path d="M32.4103 332.476C35.9938 328.877 50.8088 337.816 65.5006 352.442C80.1924 367.069 89.1974 381.843 85.6139 385.443C82.0304 389.043 67.2154 380.104 52.5236 365.477C37.8319 350.851 28.8268 336.076 32.4103 332.476Z" fill="url(#paint6_linear_225_535)"/>
  <path d="M37.1184 327.747C43.302 321.536 60.2249 328.357 74.9166 342.984C89.6084 357.61 96.5056 374.502 90.3219 380.714C84.1383 386.925 67.2155 380.103 52.5237 365.477C37.832 350.85 30.9348 333.958 37.1184 327.747Z" fill="url(#paint7_linear_225_535)"/>
  <path d="M36.7886 342.241C37.8312 341.194 47.0178 348.649 57.3074 358.893C67.5971 369.137 75.0932 378.29 74.0505 379.337C73.0078 380.385 63.8212 372.93 53.5316 362.686C43.242 352.442 35.7459 343.289 36.7886 342.241Z" fill="#111321"/>
  <path d="M264.448 398.672C263.345 396.211 277.41 386.577 295.863 377.152C314.316 367.728 330.17 362.082 331.273 364.543C332.376 367.004 318.311 376.639 299.858 386.063C281.405 395.488 265.551 401.133 264.448 398.672Z" fill="url(#paint8_linear_225_535)"/>
  <path d="M262.999 395.439C261.095 391.193 274.511 380.111 292.964 370.687C311.418 361.262 327.92 357.064 329.824 361.31C331.727 365.557 318.311 376.639 299.858 386.063C281.405 395.488 264.902 399.686 262.999 395.439Z" fill="url(#paint9_linear_225_535)"/>
  <path d="M274.174 395.987C273.853 395.271 284.07 389.339 296.994 382.739C309.918 376.138 320.655 371.368 320.976 372.084C321.297 372.8 311.08 378.731 298.156 385.332C285.232 391.932 274.495 396.703 274.174 395.987Z" fill="#050715"/>
  <path d="M413.326 224.698C408.898 224.985 404.359 210.567 403.188 192.495C402.017 174.423 404.657 159.54 409.085 159.253C413.513 158.967 418.051 173.384 419.222 191.456C420.393 209.528 417.753 224.411 413.326 224.698Z" fill="url(#paint10_linear_225_535)"/>
  <path d="M407.508 225.075C399.868 225.571 392.725 211.322 391.554 193.25C390.383 175.178 395.627 160.126 403.268 159.631C410.908 159.136 418.051 173.385 419.222 191.457C420.393 209.529 415.149 224.58 407.508 225.075Z" fill="url(#paint11_linear_225_535)"/>
  <path d="M416.101 215.772C414.813 215.856 413.104 205.663 412.284 193.006C411.463 180.349 411.843 170.021 413.131 169.937C414.419 169.854 416.129 180.046 416.949 192.703C417.769 205.36 417.39 215.689 416.101 215.772Z" fill="#060816"/>
  <path d="M306.226 22.5783C304.949 25.0299 295.801 22.7901 285.795 17.5756C275.789 12.361 268.713 6.14642 269.99 3.69483C271.268 1.24324 280.415 3.48305 290.422 8.69759C300.428 13.9121 307.504 20.1267 306.226 22.5783Z" fill="url(#paint12_linear_225_535)"/>
  <path d="M304.548 25.7993C302.343 30.0297 292.444 29.2319 282.438 24.0174C272.432 18.8029 266.107 11.1462 268.312 6.91577C270.516 2.68533 280.415 3.4831 290.421 8.69763C300.428 13.9122 306.752 21.5688 304.548 25.7993Z" fill="url(#paint13_linear_225_535)"/>
  <path d="M302.367 18.2154C301.995 18.9287 296.012 16.5464 289.004 12.8943C281.996 9.24218 276.616 5.70332 276.988 4.98999C277.36 4.27667 283.342 6.659 290.35 10.3111C297.359 13.9632 302.738 17.502 302.367 18.2154Z" fill="#101220"/>
  <path d="M234.02 158.702C239.172 168.315 235.557 180.285 225.944 185.438C216.33 190.591 204.36 186.975 199.207 177.362C194.055 167.749 197.67 155.778 207.284 150.626C216.897 145.473 228.867 149.088 234.02 158.702Z" fill="#2F313F"/>
  <path d="M151.803 366.497C149.451 372.604 139.294 374.377 129.115 370.457C118.937 366.537 112.592 358.409 114.944 352.302C117.296 346.195 127.454 344.422 137.632 348.342C147.811 352.262 154.155 360.39 151.803 366.497Z" fill="#282A38"/>
  <path d="M156.65 47.8043C159.742 53.5721 154.455 62.4251 144.842 67.5779C135.229 72.7308 124.93 72.2322 121.838 66.4643C118.747 60.6964 124.033 51.8435 133.646 46.6906C143.259 41.5378 153.559 42.0364 156.65 47.8043Z" fill="#3F414F"/>
  <path d="M377.417 212.967C383.539 215.281 385.375 225.427 381.52 235.63C377.664 245.833 369.576 252.228 363.454 249.915C357.332 247.601 355.495 237.455 359.351 227.252C363.207 217.049 371.295 210.654 377.417 212.967Z" fill="#1B1D2B"/>
  <defs>
    <linearGradient id="paint0_linear_225_535" x1="43.9534" y1="78.4322" x2="366.843" y2="332.364" gradientUnits="userSpaceOnUse">
      <stop stop-color="#404250"/>
      <stop offset="1" stop-color="#090B19"/>
    </linearGradient>
    <linearGradient id="paint1_linear_225_535" x1="60.6013" y1="196.404" x2="110.28" y2="235.466" gradientUnits="userSpaceOnUse">
      <stop stop-color="#090B19"/>
      <stop offset="1" stop-color="#3A3C4A"/>
    </linearGradient>
    <linearGradient id="paint2_linear_225_535" x1="219.678" y1="30.984" x2="238.267" y2="42.5246" gradientUnits="userSpaceOnUse">
      <stop stop-color="#080A18"/>
      <stop offset="1" stop-color="#4C4E5C"/>
    </linearGradient>
    <linearGradient id="paint3_linear_225_535" x1="359.984" y1="140.265" x2="383.662" y2="136.517" gradientUnits="userSpaceOnUse">
      <stop stop-color="#0F111F"/>
      <stop offset="1" stop-color="#272937"/>
    </linearGradient>
    <linearGradient id="paint4_linear_225_535" x1="89.2956" y1="37.9152" x2="96.6158" y2="48.4789" gradientUnits="userSpaceOnUse">
      <stop stop-color="#161826"/>
      <stop offset="1" stop-color="#4C4E5C"/>
    </linearGradient>
    <linearGradient id="paint5_linear_225_535" x1="258.075" y1="274.598" x2="311.474" y2="340.39" gradientUnits="userSpaceOnUse">
      <stop stop-color="#060816"/>
      <stop offset="1" stop-color="#242634"/>
    </linearGradient>
    <linearGradient id="paint6_linear_225_535" x1="86.724" y1="385.541" x2="33.8639" y2="328.728" gradientUnits="userSpaceOnUse">
      <stop stop-color="#222432"/>
      <stop offset="1" stop-color="#2B2D3B"/>
    </linearGradient>
    <linearGradient id="paint7_linear_225_535" x1="95.0117" y1="379.122" x2="44.7577" y2="317.982" gradientUnits="userSpaceOnUse">
      <stop stop-color="#222432"/>
      <stop offset="1" stop-color="#2B2D3B"/>
    </linearGradient>
    <linearGradient id="paint8_linear_225_535" x1="333.727" y1="361.437" x2="266.172" y2="402.188" gradientUnits="userSpaceOnUse">
      <stop stop-color="#0A0C1A"/>
      <stop offset="1" stop-color="#0E101E"/>
    </linearGradient>
    <linearGradient id="paint9_linear_225_535" x1="332" y1="357.679" x2="263.537" y2="397.033" gradientUnits="userSpaceOnUse">
      <stop stop-color="#0A0C1A"/>
      <stop offset="1" stop-color="#0E101E"/>
    </linearGradient>
    <linearGradient id="paint10_linear_225_535" x1="412.595" y1="224.312" x2="408.973" y2="159.032" gradientUnits="userSpaceOnUse">
      <stop stop-color="#0D0F1D"/>
      <stop offset="1" stop-color="#131523"/>
    </linearGradient>
    <linearGradient id="paint11_linear_225_535" x1="404.451" y1="226.34" x2="396.487" y2="158.844" gradientUnits="userSpaceOnUse">
      <stop stop-color="#0D0F1D"/>
      <stop offset="1" stop-color="#131523"/>
    </linearGradient>
    <linearGradient id="paint12_linear_225_535" x1="268.024" y1="2.24647" x2="307.242" y2="19.1785" gradientUnits="userSpaceOnUse">
      <stop stop-color="#2E303E"/>
      <stop offset="1" stop-color="#292B39"/>
    </linearGradient>
    <linearGradient id="paint13_linear_225_535" x1="264.919" y1="5.65607" x2="305.639" y2="25.0276" gradientUnits="userSpaceOnUse">
      <stop stop-color="#2E303E"/>
      <stop offset="1" stop-color="#292B39"/>
    </linearGradient>
  </defs>
</svg>
